<svg width="223" height="78" viewBox="0 0 223 78" fill="none" xmlns="http://www.w3.org/2000/svg">
<path d="M119.552 30.5133C119.552 32.7983 118.462 33.9413 116.617 33.9413C114.688 33.9413 113.682 32.7559 113.682 30.5133V21.8805C113.682 19.5109 114.982 18.4525 116.617 18.4525C118.21 18.4525 119.552 19.5109 119.552 21.8805V22.1767H122.697V21.2458C122.697 19.257 121.565 15.3636 116.617 15.3636C111.418 15.3636 110.537 19.6802 110.537 21.4151V30.9364C110.537 32.756 111.418 37.0302 116.617 37.0302C121.439 37.0302 122.697 33.1796 122.697 31.1057V30.2594H119.552V30.5133ZM133.816 36.6917H136.96V21.669C136.96 18.9604 135.912 15.3636 131.09 15.3636C127.694 15.3636 125.01 17.4794 125.01 21.0343H128.029C128.365 18.9603 129.79 18.4526 130.88 18.4526C132.977 18.4526 133.816 20.1034 133.816 21.2882V24.3772C132.012 24.2079 131.341 24.2079 130.88 24.2079C126.227 24.2079 124.801 26.705 124.801 31.148C124.801 34.4914 125.765 37.0303 129.078 37.0303C131.719 37.0303 132.725 35.8454 133.774 34.6183H133.816V36.6917ZM133.816 30.3863C133.816 32.5867 131.928 34.3221 130.629 34.3221C128.826 34.3221 127.946 33.5181 127.946 30.5556C127.946 27.4666 129.874 26.4933 131.677 26.4933C132.18 26.4933 132.935 26.578 133.816 26.7049V30.3863ZM152.397 15.7021H142.418L142.293 20.6957C142.251 21.9229 142.167 25.4773 142.041 27.1281C141.748 30.5556 141.37 34.0682 138.645 34.0682H138.267V36.6917H138.771C142.796 36.6917 144.012 33.9413 144.557 30.3863C144.976 27.382 145.144 22.2614 145.185 20.8227L145.269 18.368H149.253V36.6917H152.397V15.7021ZM155.801 31.0211C155.801 32.7136 156.681 37.0302 161.797 37.0302C166.912 37.0302 167.792 32.7136 167.792 31.0211V21.2458C167.792 19.7225 166.912 15.3636 161.797 15.3636C156.681 15.3636 155.801 19.7225 155.801 21.2881V31.0211ZM164.648 30.5133C164.648 32.7983 163.557 33.9413 161.797 33.9413C159.952 33.9413 158.946 32.7136 158.946 30.5133V21.8805C158.946 19.5532 160.245 18.4525 161.797 18.4525C163.348 18.4525 164.648 19.5532 164.648 21.8805V30.5133ZM171.196 36.6917H174.341V27.3819H180.043V36.6917H183.187V15.7021H180.043V24.6733H174.341V15.7021H171.196V36.6917Z" fill="#3BB4BD"/>
<path d="M213.075 52.6424H208.889V49.8087C208.889 49.2436 208.95 48.4736 209.248 47.6585C209.548 46.8359 210.088 45.9721 211.045 45.2336C211.551 44.8356 212.21 44.4617 213.039 44.2057C213.727 43.9933 214.53 43.8604 215.456 43.8604C216.283 43.8604 217.159 43.9619 217.984 44.193C218.724 44.4006 219.423 44.714 220.011 45.1546C220.379 45.4233 220.939 45.9072 221.404 46.6626C221.87 47.4204 222.247 48.4505 222.247 49.8087V52.0228C222.247 52.7425 222.227 53.4852 222.068 54.2232C221.905 54.9852 221.596 55.7302 221.02 56.4157L221.007 56.4303C220.787 56.6717 220.526 56.9155 220.251 57.1363L220.051 57.2904C220.32 57.4741 220.546 57.6601 220.734 57.8415C221.07 58.1642 221.292 58.4728 221.439 58.7275C221.802 59.3419 222.006 59.9564 222.116 60.5685C222.226 61.1741 222.247 61.7604 222.247 62.3415V65.4186C222.247 66.1857 222.196 66.9885 221.95 67.7933C221.7 68.6121 221.251 69.4154 220.459 70.1535C219.711 70.8464 218.873 71.2645 217.998 71.5079C217.138 71.7469 216.252 71.817 215.382 71.817C214.665 71.817 213.856 71.7667 213.038 71.552C212.209 71.334 211.383 70.9474 210.653 70.277C210.468 70.1178 209.796 69.4681 209.342 68.3909C209.083 67.7759 208.889 67.0186 208.889 66.1312V63.2223H213.541V65.1931C213.541 65.4467 213.595 65.7648 213.692 66.0589C213.774 66.3078 213.885 66.5352 214.014 66.6785C214.156 66.8331 214.375 66.951 214.616 67.0346C214.947 67.1502 215.315 67.2 215.605 67.2C215.982 67.2 216.284 67.153 216.52 67.0788C216.772 66.9999 216.947 66.8899 217.062 66.7748L217.072 66.7654C217.594 66.2684 217.595 65.5783 217.595 64.8558V62.529C217.595 62.1926 217.578 61.6636 217.456 61.1501C217.342 60.6696 217.136 60.1899 216.767 59.8921L216.754 59.8831C216.641 59.7849 216.434 59.6557 216.098 59.5599C215.838 59.4862 215.505 59.4341 215.084 59.4341H213.502V55.1177H214.972C215.402 55.1177 215.811 55.044 216.167 54.9101C216.507 54.7804 216.799 54.5981 217.008 54.3736C217.279 54.0701 217.424 53.6844 217.503 53.3241C217.586 52.9421 217.595 52.5823 217.595 52.3601V50.6717C217.595 50.4147 217.595 50.0798 217.516 49.7627C217.444 49.4733 217.301 49.176 217.021 48.9335C216.855 48.7959 216.637 48.6794 216.38 48.6004C216.126 48.5225 215.828 48.4773 215.493 48.4773C215.208 48.4773 214.946 48.5281 214.718 48.6183C214.483 48.7108 214.277 48.8475 214.111 49.0153L214.1 49.0246C213.852 49.26 213.713 49.5254 213.637 49.7857C213.557 50.061 213.541 50.348 213.541 50.5965V52.6424H213.075L213.075 52.6424Z" fill="#F84A8F"/>
<path d="M191.957 70.9719V44.2357H196.61V58.7449L201.817 47.605V44.2357H206.469V71.4416H201.817V56.9325L196.61 68.0724V71.4416H191.957V70.9719Z" fill="#F84A8F"/>
<path d="M180.143 71.4416H175.956V44.2357H181.966C182.791 44.2357 183.716 44.2559 184.667 44.4941C185.64 44.7379 186.618 45.2063 187.504 46.0994C188.427 47.0526 188.937 48.1401 189.216 49.2493C189.489 50.3349 189.538 51.4304 189.538 52.4353V53.186C189.538 53.9433 189.499 54.8885 189.269 55.8722C189.036 56.8738 188.605 57.9101 187.823 58.8206C186.996 59.7756 186.041 60.3342 185.076 60.6532C184.126 60.9675 183.175 61.0478 182.338 61.0478H180.609V71.4416H180.143ZM181.445 48.5526H180.609V56.731H182.152C182.471 56.731 182.856 56.7065 183.234 56.5891C183.6 56.4749 183.976 56.2701 184.302 55.9107C184.898 55.2503 184.893 54.5136 184.888 53.7512L184.885 51.7071C184.888 50.9076 184.89 49.8139 184.052 49.1201C183.364 48.5479 182.464 48.5493 181.589 48.5507L181.445 48.5526V48.5526Z" fill="#F84A8F"/>
<path d="M159.211 70.9719V44.2357H172.42V71.4416H167.768V48.5526H163.863V71.4416H159.211V70.9719Z" fill="#F84A8F"/>
<path d="M147.396 71.4416H143.21V44.2357H149.22C150.045 44.2357 150.97 44.2559 151.921 44.4941C152.893 44.7379 153.872 45.2063 154.757 46.0994C155.68 47.0526 156.191 48.1401 156.47 49.2493C156.742 50.3349 156.791 51.4304 156.791 52.4353V53.186C156.791 53.9433 156.752 54.8885 156.523 55.8722C156.29 56.8738 155.859 57.9101 155.077 58.8206C154.25 59.7756 153.294 60.3342 152.33 60.6532C151.38 60.9675 150.429 61.0478 149.591 61.0478H147.862V71.4416H147.396ZM148.698 48.5526H147.862V56.731H149.405C149.725 56.731 150.109 56.7065 150.487 56.5891C150.854 56.4749 151.23 56.2701 151.555 55.9107C152.151 55.2503 152.147 54.5136 152.142 53.7512L152.139 51.7071C152.142 50.9076 152.143 49.8139 151.306 49.1201C150.617 48.5479 149.718 48.5493 148.842 48.5507L148.698 48.5526V48.5526Z" fill="#F84A8F"/>
<path d="M126.185 67.1022C125.909 66.1077 125.87 65.0949 125.87 64.0675V59.847H123.713V71.4416H119.061V44.2357H123.713V55.5301H125.87V51.6098C125.87 50.5824 125.909 49.57 126.185 48.5751C126.467 47.5608 126.99 46.587 127.952 45.6775C128.571 45.095 129.306 44.6294 130.156 44.3161C130.954 44.022 131.852 43.8604 132.846 43.8604C133.87 43.8604 134.791 44.0309 135.605 44.3419C136.426 44.6543 137.138 45.1095 137.739 45.676C138.703 46.587 139.226 47.5608 139.507 48.5751C139.783 49.5701 139.823 50.5824 139.823 51.6098V64.0675C139.823 65.0948 139.783 66.1077 139.507 67.1022C139.226 68.1165 138.703 69.0903 137.741 69.9998C137.138 70.5669 136.426 71.0225 135.605 71.3354C134.79 71.6459 133.87 71.8169 132.846 71.8169C131.852 71.8169 130.954 71.6553 130.156 71.3612C129.306 71.0479 128.571 70.5823 127.954 70.0012C126.99 69.0903 126.467 68.1164 126.185 67.1022V67.1022ZM135.063 65.6769C135.155 65.3481 135.171 64.9906 135.171 64.6303V51.047C135.171 50.6867 135.155 50.3297 135.063 50.0013C134.978 49.6898 134.817 49.3836 134.526 49.0904C134.362 48.9245 134.143 48.7728 133.873 48.6629C133.592 48.5487 133.249 48.4773 132.846 48.4773C132.472 48.4773 132.15 48.5393 131.879 48.6403C131.58 48.7517 131.342 48.9133 131.167 49.0904C130.876 49.3812 130.716 49.688 130.629 49.9994C130.538 50.3296 130.522 50.6867 130.522 51.047V64.6302C130.522 64.9906 130.538 65.3481 130.629 65.676C130.715 65.9879 130.875 66.2937 131.167 66.5873C131.34 66.764 131.578 66.9246 131.879 67.0369C132.15 67.1379 132.473 67.1999 132.846 67.1999C133.249 67.1999 133.592 67.1285 133.873 67.0144C134.146 66.9035 134.365 66.7523 134.528 66.5874C134.816 66.2951 134.977 65.9888 135.063 65.6769Z" fill="#F84A8F"/>
<path d="M115.506 52.6424H111.431V50.6717C111.431 50.4279 111.394 50.1361 111.315 49.8547C111.249 49.6203 111.156 49.3962 111.035 49.2172C110.963 49.1148 110.816 48.9307 110.572 48.7728C110.324 48.6122 109.97 48.4774 109.479 48.4774C109.075 48.4774 108.752 48.5615 108.496 48.6906C108.244 48.8156 108.05 48.9894 107.901 49.1698C107.661 49.4743 107.531 49.8261 107.461 50.1953C107.386 50.5932 107.377 51.0301 107.377 51.46V64.4053C107.377 64.8243 107.378 65.2269 107.43 65.5675C107.48 65.886 107.578 66.1852 107.772 66.4563L107.776 66.4638C107.893 66.6329 108.101 66.8528 108.415 67.0083C108.643 67.121 108.933 67.1999 109.293 67.1999C109.657 67.1999 110.018 67.1319 110.33 66.997C110.601 66.8805 110.835 66.7128 110.998 66.4977C111.07 66.3948 111.174 66.2223 111.263 65.9381C111.357 65.6361 111.431 65.2147 111.431 64.6303V63.2223H116.083V64.7806C116.083 65.9367 115.912 66.8923 115.66 67.6659C115.316 68.7234 114.818 69.4507 114.399 69.8993C113.922 70.4264 113.195 70.9657 112.169 71.3364C111.365 71.6272 110.377 71.817 109.181 71.817C107.876 71.817 106.84 71.544 106.02 71.1405C105.191 70.7327 104.583 70.191 104.138 69.6611C102.725 67.9967 102.727 66.1495 102.727 64.7369L102.726 51.0095C102.726 50.1108 102.785 49.1482 103.067 48.2068C103.354 47.2428 103.872 46.3121 104.785 45.5145C105.375 44.9803 106.093 44.5805 106.84 44.3104C107.677 44.007 108.555 43.8604 109.33 43.8604C110.188 43.8604 111.122 44.0318 111.989 44.3565C112.807 44.6632 113.568 45.11 114.154 45.6812L114.161 45.6869C114.693 46.2229 115.169 46.9506 115.498 47.8089C115.792 48.5737 115.972 49.4432 115.972 50.3715V52.6424H115.506L115.506 52.6424Z" fill="#F84A8F"/>
<path fill-rule="evenodd" clip-rule="evenodd" d="M59.29 24.4763C54.0336 10.3104 42.7992 -1.2519 27.0731 0.139796C13.7065 0.998902 0.365928 10.7645 0.109957 28.0388C-0.268731 53.6059 26.3098 77.3074 49.4708 69.8789C50.6214 72.5753 50.6398 73.8687 50.8398 76.7272C51.0479 80.5553 61.3329 74.1374 57.9239 72.3935C55.6661 71.1934 54.0661 70.5017 52.9259 68.2818C65.5397 59.8164 63.6556 36.2423 59.29 24.4763H59.29Z" fill="#F84A8F"/>
<path fill-rule="evenodd" clip-rule="evenodd" d="M59.3226 24.4844C54.0665 10.3181 42.8321 -1.24396 27.1058 0.147804C13.7392 1.00666 0.3987 10.7723 0.142872 28.0465C0.0398818 35.0065 1.9378 41.8266 5.21715 47.9198C24.6884 67.8021 58.5402 60.4914 59.4847 24.933C59.4308 24.7822 59.3773 24.6318 59.3226 24.4844V24.4844Z" fill="#F85898"/>
<path fill-rule="evenodd" clip-rule="evenodd" d="M49.4738 69.8752C49.7458 70.514 49.9546 71.0742 50.1173 71.5947L53.8792 69.6972C53.5313 69.2999 53.2162 68.8382 52.9297 68.2799L49.4738 69.8752H49.4738Z" fill="#FFD5AB"/>
<path fill-rule="evenodd" clip-rule="evenodd" d="M33.6831 12.6017C37.0282 12.7007 38.307 12.9984 38.7008 11.6093C39.0946 10.2201 37.0282 7.64027 32.7977 6.6479C28.5672 5.65557 22.8845 6.18814 18.0884 9.18954C13.2923 12.191 10.3859 15.8915 9.63583 20.5075C8.88582 25.1234 10.2472 25.5341 11.1444 25.5704C12.0417 25.6068 12.9717 23.9289 14.4565 21.8771C18.793 15.8832 26.3334 12.3837 33.683 12.6016L33.6831 12.6017Z" fill="#FC82B3"/>
<path fill-rule="evenodd" clip-rule="evenodd" d="M53.4465 28.7123C56.1634 17.8183 63.5059 8.34697 75.2267 8.06124C85.1624 7.57937 95.8098 13.6731 97.4164 26.401C99.7942 45.239 82.1233 64.9507 64.4197 61.4016C63.7919 63.4878 63.8844 64.4439 63.9714 66.5704C64.132 69.413 56.0145 65.5349 58.3873 63.9633C59.9552 62.8891 61.0793 62.245 61.7386 60.5114C51.7344 55.3166 51.1902 37.7606 53.4465 28.7123Z" fill="#3BB4BD"/>
<path fill-rule="evenodd" clip-rule="evenodd" d="M53.4231 28.721C56.1397 17.8268 63.4823 8.35556 75.2032 8.06986C85.1389 7.58783 95.7862 13.6816 97.3928 26.4094C98.04 31.5376 97.1989 36.7295 95.2787 41.5004C82.5398 57.7999 56.9556 55.2304 53.3403 29.0655C53.3677 28.9497 53.3949 28.8343 53.4231 28.7209L53.4231 28.721Z" fill="#55BCC1"/>
<path fill-rule="evenodd" clip-rule="evenodd" d="M64.4173 61.3993C64.269 61.8935 64.1608 62.3243 64.0835 62.7221L61.1514 61.6357C61.3754 61.3134 61.5702 60.9464 61.7358 60.5104L64.4173 61.3993Z" fill="#FFD5AB"/>
<path fill-rule="evenodd" clip-rule="evenodd" d="M71.3711 17.8104C68.9103 18.1628 67.991 18.4893 67.5864 17.4969C67.1817 16.5045 68.495 14.428 71.5359 13.3424C74.5769 12.2568 78.8146 12.1754 82.6007 13.9902C86.3868 15.805 88.8355 18.2935 89.7679 21.6377C90.7003 24.9819 89.7293 25.3986 89.07 25.5004C88.4108 25.6021 87.5867 24.4414 86.3224 23.051C82.6299 18.9893 76.7776 17.036 71.3711 17.8104V17.8104Z" fill="#7ECECF"/>
</svg>
